<?xml version="1.0" encoding="utf-8"?><svg width="2250px" height="2250px" viewBox="0 0 5250 5250" xmlns="http://www.w3.org/2000/svg"><rect x="100px" y="100px" width="0px" height="0px" fill="rgba(255,255,255,0)" stroke="black" stroke-width="1.5px"/><rect x="100px" y="100px" width="0px" height="0px" fill="rgba(255,255,255,0)" stroke="black" stroke-width=".5px"/><line x1="100px" y1="100px" x2="100px" y2="70px" stroke="black" stroke-width=".5px"/><line x1="100px" y1="100px" x2="100px" y2="70px" stroke="black" stroke-width=".5px"/><line x1="100px" y1="75px" x2="150px" y2="75px" stroke="black" stroke-width=".5px"/><line x1="97px" y1="78px" x2="103px" y2="72px" stroke="black" stroke-width=".5px"/><line x1="97px" y1="78px" x2="103px" y2="72px" stroke="black" stroke-width=".5px"/><text x="100px" y="75px" font-size="25px" font-style="normal" font-weight="bold" text-orientation="mixed" color="black">М0x0</text><line x1="100px" y1="100px" x2="135px" y2="100px" stroke="black" stroke-width=".5px"/><line x1="100px" y1="100px" x2="135px" y2="100px" stroke="black" stroke-width=".5px"/><line x1="130px" y1="100px" x2="130px" y2="100px" stroke="black" stroke-width=".5px"/><line x1="127px" y1="103px" x2="133px" y2="97px" stroke="black" stroke-width=".5px"/><line x1="127px" y1="103px" x2="133px" y2="97px" stroke="black" stroke-width=".5px"/><text transform="rotate(-90 130,110)" x="130px" y="110px" font-size="25px" font-style="normal" font-weight="bold" text-orientation="mixed" color="black">0</text><line x1="100px" y1="130px" x2="140px" y2="130px" stroke="black" stroke-width=".5px"/><line x1="97px" y1="133px" x2="103px" y2="127px" stroke="black" stroke-width=".5px"/><line x1="97px" y1="133px" x2="103px" y2="127px" stroke="black" stroke-width=".5px"/><text x="105px" y="130px" font-size="25px" font-style="normal" font-weight="bold" text-orientation="mixed" color="black">d0</text><rect x="100px" y="100px" width="0px" height="0px" fill="rgba(255,255,255,0)" stroke="black" stroke-width="1px"/><line x1="100px" y1="100px" x2="170px" y2="100px" stroke="black" stroke-width=".5px"/><line x1="100px" y1="100px" x2="160px" y2="100px" stroke="black" stroke-width=".5px"/><line x1="155px" y1="100px" x2="155px" y2="100px" stroke="black" stroke-width=".5px"/><line x1="152px" y1="103px" x2="158px" y2="97px" stroke="black" stroke-width=".5px"/><line x1="152px" y1="103px" x2="158px" y2="97px" stroke="black" stroke-width=".5px"/><text transform="rotate(-90 155,110)" x="155px" y="110px" font-size="25px" font-style="normal" font-weight="bold" text-orientation="mixed" color="black">0</text></svg>