<?xml version="1.0" encoding="utf-8"?><svg width="2250px" height="2250px" viewBox="0 0 5000 5000" xmlns="http://www.w3.org/2000/svg"><rect x="200px" y="100px" width="10px" height="200px" fill="rgba(255,255,255,0)" stroke="black" stroke-width="1.5px"/><rect x="200.75px" y="100px" width="8.5px" height="200px" fill="rgba(255,255,255,0)" stroke="black" stroke-width=".5px"/><line x1="200px" y1="100px" x2="200px" y2="70px" stroke="black" stroke-width=".5px"/><line x1="210px" y1="100px" x2="210px" y2="70px" stroke="black" stroke-width=".5px"/><line x1="200px" y1="75px" x2="260px" y2="75px" stroke="black" stroke-width=".5px"/><line x1="197px" y1="78px" x2="203px" y2="72px" stroke="black" stroke-width=".5px"/><line x1="207px" y1="78px" x2="213px" y2="72px" stroke="black" stroke-width=".5px"/><text x="210px" y="75px" font-size="25px" font-style="normal" font-weight="bold" text-orientation="mixed" color="black">М10x1.5</text><line x1="210px" y1="100px" x2="245px" y2="100px" stroke="black" stroke-width=".5px"/><line x1="210px" y1="300px" x2="245px" y2="300px" stroke="black" stroke-width=".5px"/><line x1="240px" y1="100px" x2="240px" y2="300px" stroke="black" stroke-width=".5px"/><line x1="237px" y1="103px" x2="243px" y2="97px" stroke="black" stroke-width=".5px"/><line x1="237px" y1="303px" x2="243px" y2="297px" stroke="black" stroke-width=".5px"/><text transform="rotate(-90 240,210)" x="240px" y="210px" font-size="25px" font-style="normal" font-weight="bold" text-orientation="mixed" color="black">200</text><line x1="200px" y1="330px" x2="250px" y2="330px" stroke="black" stroke-width=".5px"/><line x1="197px" y1="333px" x2="203px" y2="327px" stroke="black" stroke-width=".5px"/><line x1="207px" y1="333px" x2="213px" y2="327px" stroke="black" stroke-width=".5px"/><text x="215px" y="330px" font-size="25px" font-style="normal" font-weight="bold" text-orientation="mixed" color="black">d10</text><path fill="rgba(255,255,255,0)" stroke="black" stroke-width="1.5" d="M200,1030V300H210V1030"/><path fill="rgba(255,255,255,0)" stroke="black" stroke-width=".5" d="M200,1030C205,1025 210,1030 210,1030"/><path fill="rgba(255,255,255,0)" stroke="black" stroke-width=".5" d="M200,1050C205,1045 210,1050 210,1050"/><line x1="210px" y1="100px" x2="270px" y2="100px" stroke="black" stroke-width=".5px"/><path fill="rgba(255,255,255,0)" stroke="black" stroke-width="1.5" d="M200,1050V1758H210V1050"/><path fill="rgba(255,255,255,0)" stroke="black" stroke-width="1.5" d="M200,1758C200,1790 168,1790 168,1790V1800C210,1800 210,1758 210,1758"/><rect x="110px" y="1790px" width="58px" height="10px" fill="rgba(255,255,255,0)" stroke="black" stroke-width="1.5px"/><line x1="110px" y1="1800px" x2="110px" y2="1835px" stroke="black" stroke-width=".5px"/><line x1="210px" y1="1758px" x2="210px" y2="1835px" stroke="black" stroke-width=".5px"/><line x1="110px" y1="1830px" x2="210px" y2="1830px" stroke="black" stroke-width=".5px"/><line x1="107px" y1="1833px" x2="113px" y2="1827px" stroke="black" stroke-width=".5px"/><line x1="207px" y1="1833px" x2="213px" y2="1827px" stroke="black" stroke-width=".5px"/><text x="150px" y="1830px" font-size="25px" font-style="normal" font-weight="bold" text-orientation="mixed" color="black">100</text><line x1="190.6274px" y1="1780.627px" x2="168px" y2="1758px" stroke="black" stroke-width=".5px"/><line x1="168px" y1="1758px" x2="128px" y2="1758px" stroke="black" stroke-width=".5px"/><line x1="188.6274px" y1="1785.627px" x2="192.6274px" y2="1775.627px" stroke="black" stroke-width=".5px"/><text x="128px" y="1758px" font-size="25px" font-style="normal" font-weight="bold" text-orientation="mixed" color="black">R32</text><text transform="rotate(-90 265,960)" x="265px" y="960px" font-size="25px" font-style="normal" font-weight="bold" text-orientation="mixed" color="black">10000</text><line x1="168px" y1="1800px" x2="270px" y2="1800px" stroke="black" stroke-width=".5px"/><line x1="262px" y1="1803px" x2="268px" y2="1797px" stroke="black" stroke-width=".5px"/><line x1="265px" y1="100px" x2="265px" y2="1800px" stroke="black" stroke-width=".5px"/><line x1="262px" y1="103px" x2="268px" y2="97px" stroke="black" stroke-width=".5px"/></svg>